# xmcd CD database file
#
# Track frame offsets:
#	151
#	16546
#	31903
#	46730
#	63009
#	75896
#	89241
#	102676
#	119749
#	135972
#
# Disc length: 2043 seconds
#
# Revision: 0
# Processed by: cddbd v1.5.2PL0 Copyright (c) Steve Scherf et al.
# Submitted via: CDex 1.70beta2
#
DISCID=7207f90a
DTITLE=T.G. Sheppard - Finally: The Best Of T.G. Sheppard
DYEAR=2002
DGENRE=Country
TTITLE0=I Loved 'Em Every One
TTITLE1=Slow Burn
TTITLE2=Only One You
TTITLE3=Strong Heart
TTITLE4=Tryin' To Beat The Morning Home
TTITLE5=Devil In The Bottle
TTITLE6=I'll Be Coming Back For More
TTITLE7=Last Cheaters Waltz
TTITLE8=Party Time
TTITLE9=Finally
EXTD=YEAR: 2002
EXTT0=
EXTT1=
EXTT2=
EXTT3=
EXTT4=
EXTT5=
EXTT6=
EXTT7=
EXTT8=
EXTT9=
PLAYORDER=
